<?xml version="1.0" standalone="no"?>
<!DOCTYPE svg PUBLIC "-//W3C//DTD SVG 20010904//EN"
 "http://www.w3.org/TR/2001/REC-SVG-20010904/DTD/svg10.dtd">
<svg version="1.0" xmlns="http://www.w3.org/2000/svg"
 width="840.000000pt" height="758.000000pt" viewBox="0 0 840.000000 758.000000"
 preserveAspectRatio="xMidYMid meet">

<g transform="translate(0.000000,758.000000) scale(0.100000,-0.100000)"
fill="#000000" stroke="none">
<path d="M3715 7144 c-293 -36 -640 -147 -935 -301 -142 -73 -391 -231 -460
-292 l-35 -31 30 7 c45 11 78 9 82 -3 5 -14 -19 -39 -212 -215 -224 -205 -308
-318 -385 -515 -142 -362 -205 -861 -180 -1422 5 -136 14 -281 19 -322 4 -41
6 -121 3 -176 -3 -69 -1 -103 7 -108 26 -16 12 -65 -29 -102 -158 -143 -243
-435 -196 -676 49 -247 189 -431 376 -493 48 -16 49 -18 56 -63 31 -228 159
-632 260 -821 85 -160 133 -222 318 -407 207 -206 275 -258 601 -455 381 -230
549 -295 850 -329 83 -9 121 -9 220 4 92 12 164 15 305 10 328 -11 464 28 782
223 48 30 141 95 205 145 65 51 168 123 228 161 212 133 377 291 437 417 42
89 175 321 228 400 20 30 49 78 63 107 35 69 108 287 150 452 l35 134 66 23
c136 45 242 146 317 300 53 109 73 202 73 344 0 202 -63 367 -191 501 -74 77
-84 99 -58 132 14 20 13 81 -6 192 -15 89 5 496 33 670 19 121 22 180 22 435
1 329 -11 430 -75 622 -57 172 -123 271 -285 428 -163 158 -303 250 -509 336
-148 62 -176 83 -215 157 -55 104 -87 128 -77 57 3 -22 3 -40 1 -40 -3 0 -65
53 -137 118 -146 130 -216 181 -322 234 -146 74 -355 131 -575 158 -154 19
-742 22 -885 4z m439 -1974 c103 6 760 3 846 -4 61 -5 201 -20 299 -32 25 -3
48 -7 52 -9 4 -3 24 -7 44 -10 63 -8 321 -74 370 -94 96 -41 155 -73 150 -81
-3 -6 1 -10 10 -10 18 0 86 -66 130 -125 16 -22 40 -52 54 -67 14 -16 21 -28
17 -28 -4 0 1 -12 12 -27 23 -33 75 -141 70 -146 -2 -2 2 -10 9 -18 6 -8 31
-73 54 -144 23 -72 48 -134 56 -138 7 -4 13 -13 13 -19 0 -6 7 -16 16 -23 21
-15 33 -115 14 -115 -7 0 -44 11 -82 25 -78 28 -217 55 -285 55 -36 0 -55 8
-99 39 -75 54 -130 65 -283 58 -69 -3 -225 -2 -345 4 -250 12 -299 5 -441 -56
-47 -21 -96 -35 -120 -35 -68 0 -176 -28 -218 -56 -35 -23 -47 -26 -95 -21
-71 8 -94 -4 -90 -46 3 -29 0 -32 -42 -45 -47 -14 -126 -11 -172 7 -23 9 -28
17 -28 45 0 41 -14 48 -84 40 -46 -6 -58 -3 -93 20 -42 28 -150 56 -218 56
-23 0 -78 15 -126 35 -160 65 -182 68 -447 57 -131 -6 -289 -8 -352 -5 -137 7
-204 -8 -272 -60 -39 -30 -53 -34 -129 -40 -47 -4 -120 -16 -164 -27 -43 -11
-79 -19 -81 -18 -1 2 9 103 21 225 18 169 30 242 51 305 35 109 82 203 120
244 17 19 29 34 26 34 -3 0 3 10 14 22 28 31 130 95 172 108 20 6 44 14 52 17
8 3 29 6 45 8 17 1 41 5 55 8 24 5 163 14 347 22 157 7 307 16 353 20 119 11
186 16 314 20 76 3 143 8 148 11 6 4 42 6 82 5 39 0 77 3 84 7 7 5 29 6 48 3
20 -3 73 -4 118 -1z m-649 -1220 c206 -22 332 -59 385 -113 52 -53 64 -115 57
-302 -6 -187 -21 -252 -82 -380 -123 -254 -311 -394 -590 -441 -260 -43 -577
-20 -815 58 -288 94 -391 291 -407 780 l-6 177 27 55 c56 115 158 164 376 180
109 8 957 -3 1055 -14z m2572 0 c122 -26 205 -85 243 -173 20 -46 23 -67 21
-177 -3 -240 -44 -468 -107 -592 -34 -67 -111 -148 -174 -182 -137 -75 -432
-136 -655 -136 -120 0 -323 25 -410 51 -132 39 -272 128 -349 222 -61 74 -133
203 -160 285 -32 97 -46 203 -46 341 0 126 17 196 61 246 62 71 246 111 589
129 153 8 938 -3 987 -14z m-1829 -146 c40 -28 59 -82 66 -189 11 -157 25
-263 48 -355 22 -91 88 -252 115 -282 9 -10 13 -18 9 -18 -21 0 87 -118 168
-183 82 -66 211 -134 243 -128 2 0 22 -7 45 -15 118 -42 463 -65 673 -46 66 7
156 14 200 17 132 10 241 32 355 73 51 18 84 38 152 95 51 41 80 42 54 2 -8
-12 -15 -31 -14 -41 1 -32 -10 -86 -32 -159 -12 -38 -26 -84 -31 -102 -5 -18
-14 -35 -19 -38 -5 -3 -7 -18 -4 -33 4 -19 0 -33 -10 -41 -9 -8 -16 -24 -16
-37 0 -13 -4 -24 -10 -24 -5 0 -10 -8 -10 -19 0 -11 -9 -21 -21 -24 -18 -5
-20 -11 -15 -32 4 -16 2 -33 -5 -41 -6 -8 -8 -14 -4 -14 5 0 2 -8 -6 -17 -27
-34 -39 -63 -39 -92 0 -23 -5 -30 -27 -36 -46 -11 -64 -38 -53 -76 10 -34 3
-51 -33 -77 -10 -8 -17 -19 -16 -25 3 -27 -2 -37 -21 -37 -13 0 -20 -7 -20
-20 0 -11 -4 -20 -9 -20 -5 0 -12 -11 -15 -25 -5 -18 -13 -25 -32 -25 -14 0
-24 -5 -23 -12 3 -18 -12 -52 -27 -61 -7 -4 -11 -14 -8 -21 3 -8 -4 -19 -16
-26 -12 -6 -20 -16 -18 -22 2 -6 -4 -21 -14 -32 -61 -71 -69 -77 -87 -71 -25
8 -39 -15 -18 -30 15 -11 14 -14 -6 -33 -13 -12 -26 -22 -29 -22 -11 0 -68
-58 -68 -68 0 -12 -48 -52 -62 -52 -6 0 -7 7 -4 16 8 21 -2 56 -14 49 -4 -3
-6 -15 -2 -27 4 -15 2 -19 -7 -13 -10 5 -11 2 -7 -13 5 -15 1 -24 -13 -31 -27
-15 -31 -4 -19 52 7 33 15 47 26 47 13 0 14 2 4 9 -11 6 -7 24 17 87 41 108
95 280 125 394 32 124 41 201 27 229 -15 28 -79 67 -155 96 -90 34 -411 123
-486 134 -131 21 -454 25 -618 7 -190 -20 -282 -20 -397 -1 -49 9 -155 19
-235 22 -122 5 -163 2 -255 -15 -60 -12 -144 -26 -185 -32 -152 -24 -407 -93
-484 -132 -95 -47 -112 -82 -92 -182 31 -149 47 -256 61 -406 19 -205 20 -199
-6 -193 -18 5 -20 3 -15 -14 4 -14 1 -23 -9 -27 -12 -4 -15 -1 -10 13 6 21
-19 49 -30 31 -11 -19 -26 0 -15 20 13 24 -5 37 -25 20 -18 -15 -20 1 -3 18
17 17 0 28 -21 15 -22 -14 -31 -8 -31 19 0 11 -4 16 -10 13 -16 -10 -12 6 6
26 32 35 4 55 -71 51 -11 0 -14 2 -7 4 20 9 14 30 -13 42 -14 6 -25 18 -25 27
0 8 -9 15 -20 15 -24 0 -53 41 -44 64 4 9 1 16 -6 16 -9 0 -7 6 4 19 24 27 11
48 -15 25 -20 -18 -22 -15 -19 29 1 18 -4 29 -17 34 -51 19 -112 90 -97 114 3
5 0 9 -5 9 -6 0 -11 5 -11 11 0 6 -7 17 -15 25 -8 9 -15 30 -15 49 0 23 -5 34
-19 38 -26 6 -37 58 -16 73 19 14 3 29 -21 20 -10 -4 -22 10 -39 49 -14 29
-25 59 -25 65 0 6 -7 18 -16 27 -8 9 -12 23 -9 31 3 8 1 18 -5 22 -11 7 -22
41 -23 75 0 11 -3 22 -6 25 -6 5 -26 65 -55 165 -8 28 -19 79 -26 115 -7 36
-14 72 -17 80 -3 12 25 -9 67 -50 58 -56 142 -95 279 -130 92 -23 115 -26 236
-35 44 -3 132 -10 195 -17 213 -20 523 3 698 52 75 21 192 74 192 88 0 4 13
13 29 20 57 25 226 208 235 255 2 7 18 44 35 82 59 127 92 289 107 525 7 109
30 175 72 199 26 15 75 13 100 -5z m2482 -409 c0 -7 7 -21 16 -29 8 -9 13 -20
9 -25 -3 -5 0 -13 6 -16 5 -4 8 -13 5 -21 -3 -7 -1 -16 3 -18 18 -11 21 -128
5 -204 -9 -42 -19 -79 -22 -82 -4 -3 -8 -14 -10 -25 -2 -11 -12 -38 -22 -61
-22 -48 -109 -146 -110 -123 -1 70 99 631 112 623 4 -3 8 -11 8 -19z m-5031
-120 c7 -60 23 -188 37 -284 13 -96 23 -176 21 -178 -2 -1 -20 21 -39 49 -63
93 -103 245 -94 356 5 66 45 187 57 174 4 -4 12 -56 18 -117z m2316 -1145
c144 -24 221 -25 380 -5 171 21 391 19 556 -5 175 -26 417 -75 462 -94 75 -31
90 -96 54 -241 -22 -88 -113 -344 -180 -505 -29 -70 -106 -187 -152 -231 -19
-19 -35 -39 -35 -44 0 -6 -14 -10 -32 -10 -18 0 -33 -6 -36 -14 -3 -10 2 -13
22 -9 l27 5 -23 -24 c-13 -14 -31 -29 -42 -35 -17 -9 -18 -7 -12 15 6 24 5 24
-42 19 -26 -2 -49 -6 -51 -8 -9 -8 9 -17 33 -16 22 0 23 -2 10 -15 -8 -8 -26
-16 -39 -18 -20 -2 -25 2 -25 21 0 12 -5 26 -11 29 -17 11 -21 -2 -9 -26 10
-19 10 -21 -3 -16 -23 9 -29 -4 -11 -25 23 -24 4 -45 -37 -43 -19 1 -33 -4
-36 -12 -4 -11 -8 -12 -13 -3 -4 7 -13 9 -19 6 -6 -4 -9 -10 -7 -14 2 -4 -7
-8 -20 -8 -13 -1 -24 2 -24 7 0 5 -4 9 -10 9 -5 0 -10 -7 -10 -15 0 -12 -6
-11 -32 5 -36 22 -48 25 -48 12 0 -5 10 -14 23 -19 l22 -11 -25 -10 c-61 -24
-111 -30 -125 -15 -15 15 -40 9 -30 -8 4 -5 -3 -9 -14 -9 -12 0 -21 7 -21 15
0 8 -4 15 -10 15 -5 0 -12 0 -15 0 -3 0 -5 -2 -5 -5 0 -7 -39 -45 -46 -45 -3
0 -2 5 1 10 3 6 0 11 -7 11 -7 1 -19 2 -26 3 -7 0 -16 6 -20 12 -9 13 -42 26
-42 16 0 -5 5 -13 11 -19 6 -6 8 -16 5 -22 -11 -18 -26 -13 -26 9 0 23 -18 27
-26 5 -4 -10 -20 -15 -45 -15 -35 0 -39 3 -39 24 0 14 7 32 16 40 8 9 13 20
10 25 -9 14 -48 1 -74 -24 -19 -19 -20 -24 -7 -29 8 -3 15 0 15 6 0 9 3 9 12
0 16 -16 -8 -34 -31 -23 -9 4 -29 6 -46 5 -37 -2 -75 20 -75 44 0 14 -4 13
-19 -7 -18 -23 -19 -23 -107 -12 -49 7 -90 16 -92 22 -2 5 -15 6 -29 3 -17 -5
-34 0 -54 15 -24 18 -33 20 -45 10 -12 -10 -13 -9 -7 6 5 15 3 17 -10 12 -9
-4 -23 -9 -29 -12 -7 -3 -19 -1 -27 4 -11 7 -11 15 -3 40 11 32 7 37 -17 22
-8 -5 -11 -16 -6 -30 5 -16 2 -21 -10 -21 -9 0 -19 9 -22 20 -3 11 -10 20 -15
20 -6 0 -8 -7 -5 -15 5 -12 2 -12 -21 -2 -15 6 -30 15 -33 20 -3 5 -9 8 -13 8
-25 -4 -30 -1 -18 11 7 7 12 15 12 19 0 12 -49 16 -59 6 -8 -8 -11 -7 -11 1 0
7 -12 12 -26 12 -23 0 -25 2 -14 16 11 12 10 18 -3 32 -14 13 -19 14 -29 4
-10 -10 -10 -15 2 -22 8 -5 12 -11 9 -14 -3 -3 -15 2 -28 10 -16 12 -20 19
-12 27 17 17 13 31 -4 17 -20 -16 -53 -6 -95 30 -26 22 -30 30 -17 30 9 0 17
5 17 11 0 7 -10 9 -25 6 -22 -4 -29 2 -45 33 -36 71 -80 335 -80 483 0 36 -9
109 -20 162 -36 173 -24 221 63 260 65 30 280 70 452 84 72 6 146 13 165 14
111 11 275 5 385 -13z m-1596 -323 c6 -8 8 -17 4 -20 -7 -8 -33 11 -33 24 0
13 16 11 29 -4z m211 -282 c-7 -8 -17 -15 -22 -15 -6 0 -5 7 2 15 7 8 17 15
22 15 6 0 5 -7 -2 -15z m210 -195 c0 -5 -5 -10 -11 -10 -5 0 -7 5 -4 10 3 6 8
10 11 10 2 0 4 -4 4 -10z"/>
<path d="M2474 3772 c-31 -5 -127 -84 -148 -124 -13 -23 -17 -44 -12 -62 6
-26 7 -26 76 42 38 38 91 84 119 103 28 19 51 37 51 41 0 6 -45 6 -86 0z"/>
<path d="M3587 3698 c42 -40 95 -99 119 -132 51 -68 57 -65 13 8 -44 70 -115
152 -154 176 -60 37 -53 20 22 -52z"/>
<path d="M3410 3719 c-50 -45 -48 -45 -194 2 -94 31 -189 38 -203 17 -8 -14
-9 -19 -11 -55 -1 -12 -26 -49 -56 -83 -30 -33 -57 -72 -60 -88 -24 -98 -27
-104 -42 -92 -8 7 -14 19 -14 27 0 8 -22 36 -49 63 -50 50 -71 101 -71 174 0
40 -8 66 -21 66 -16 0 -57 -95 -69 -157 -21 -121 23 -264 113 -365 39 -44 47
-48 127 -64 104 -22 331 -25 437 -5 69 12 75 15 124 69 93 101 137 234 118
356 -11 64 -52 161 -72 169 -8 3 -33 -13 -57 -34z"/>
<path d="M4845 3744 c-56 -43 -86 -76 -137 -153 -53 -78 -47 -86 8 -12 25 33
78 90 117 126 79 72 86 96 12 39z"/>
<path d="M5860 3770 c0 -5 22 -24 48 -43 27 -19 78 -62 113 -95 42 -39 70 -58
78 -53 30 19 -28 110 -107 164 -38 27 -132 46 -132 27z"/>
<path d="M4937 3742 c-30 -33 -58 -113 -64 -180 -10 -125 33 -245 122 -337 46
-48 56 -54 120 -66 97 -19 348 -17 445 5 68 14 79 20 118 63 86 92 130 221
118 342 -8 72 -37 150 -68 178 -17 16 -21 16 -31 3 -7 -8 -26 -27 -44 -42 -29
-24 -36 -25 -75 -16 -24 5 -76 20 -115 34 -50 17 -89 24 -124 22 l-52 -3 -12
-47 c-7 -30 -26 -63 -52 -91 -48 -52 -60 -72 -79 -138 -17 -56 -27 -61 -43
-21 -7 15 -32 47 -56 71 -45 43 -51 59 -70 188 -8 51 -17 59 -38 35z"/>
<path d="M3800 2708 c-25 -41 -27 -126 -4 -175 43 -89 182 -180 304 -198 116
-17 268 -8 294 16 6 5 18 9 27 9 27 0 93 39 147 86 86 76 114 172 72 254 -11
22 -24 40 -28 40 -4 0 -19 -15 -34 -34 -32 -40 -125 -90 -205 -111 -73 -20
-249 -18 -318 2 -80 24 -162 70 -192 108 -15 19 -31 35 -36 35 -4 0 -16 -15
-27 -32z"/>
<path d="M6115 2109 c-4 -6 -5 -13 -2 -16 7 -7 27 6 27 18 0 12 -17 12 -25 -2z"/>
<path d="M2270 2089 c0 -5 5 -7 10 -4 6 3 10 8 10 11 0 2 -4 4 -10 4 -5 0 -10
-5 -10 -11z"/>
<path d="M2335 1970 c3 -5 8 -10 11 -10 2 0 4 5 4 10 0 6 -5 10 -11 10 -5 0
-7 -4 -4 -10z"/>
<path d="M2370 1906 c0 -9 5 -16 10 -16 6 0 10 4 10 9 0 6 -4 13 -10 16 -5 3
-10 -1 -10 -9z"/>
<path d="M5925 1810 c-7 -12 2 -30 16 -30 12 0 12 27 0 35 -5 3 -12 1 -16 -5z"/>
<path d="M2530 1691 c0 -6 3 -11 8 -12 4 0 17 -2 29 -5 12 -2 25 1 28 6 3 6 0
10 -7 10 -7 0 -23 3 -35 6 -14 4 -23 2 -23 -5z"/>
<path d="M2710 1580 c0 -5 5 -10 10 -10 6 0 10 5 10 10 0 6 -4 10 -10 10 -5 0
-10 -4 -10 -10z"/>
<path d="M5705 1570 c-7 -12 35 -60 52 -60 11 0 11 4 1 23 -7 12 -11 25 -10
28 2 11 -37 18 -43 9z"/>
<path d="M2790 1520 c0 -6 7 -10 15 -10 8 0 15 2 15 4 0 2 -7 6 -15 10 -8 3
-15 1 -15 -4z"/>
<path d="M5594 1485 c3 -27 7 -30 35 -27 29 3 31 1 26 -21 -5 -17 -2 -24 9
-24 23 0 29 28 10 48 -10 11 -26 19 -37 19 -11 0 -26 8 -33 18 -11 15 -13 14
-10 -13z"/>
<path d="M2710 1470 c0 -5 5 -10 10 -10 6 0 10 5 10 10 0 6 -4 10 -10 10 -5 0
-10 -4 -10 -10z"/>
<path d="M2765 1470 c3 -5 8 -10 11 -10 2 0 4 5 4 10 0 6 -5 10 -11 10 -5 0
-7 -4 -4 -10z"/>
<path d="M2805 1440 c-3 -5 -1 -10 4 -10 6 0 11 5 11 10 0 6 -2 10 -4 10 -3 0
-8 -4 -11 -10z"/>
<path d="M5600 1400 c0 -5 -6 -10 -12 -10 -7 0 -24 -9 -36 -18 l-24 -18 26
-18 c14 -9 25 -13 24 -9 -2 5 7 19 20 33 23 25 29 50 12 50 -5 0 -10 -4 -10
-10z"/>
<path d="M3063 1950 c-32 -13 -39 -53 -18 -101 35 -76 259 -268 456 -390 214
-133 477 -197 766 -186 164 6 252 24 411 83 126 47 359 161 442 216 149 98
280 256 280 337 0 25 -6 34 -27 42 -29 11 -38 9 -293 -35 -215 -37 -391 -46
-872 -46 -506 0 -669 12 -976 70 -113 22 -136 23 -169 10z"/>
<path d="M3066 1153 c-3 -3 -3 -10 0 -14 7 -12 34 -11 34 0 0 11 -26 22 -34
14z"/>
<path d="M3570 1070 c0 -5 5 -10 10 -10 6 0 10 5 10 10 0 6 -4 10 -10 10 -5 0
-10 -4 -10 -10z"/>
<path d="M5005 1050 c3 -11 3 -20 -2 -20 -4 0 -8 -13 -8 -30 0 -16 5 -29 10
-27 13 5 17 97 4 97 -6 0 -8 -9 -4 -20z"/>
<path d="M3617 1049 c7 -7 15 -10 18 -7 3 3 -2 9 -12 12 -14 6 -15 5 -6 -5z"/>
<path d="M3537 1030 c3 -11 11 -20 18 -20 8 0 11 8 8 20 -3 11 -11 20 -18 20
-8 0 -11 -8 -8 -20z"/>
<path d="M3345 1030 c-3 -5 -1 -10 4 -10 6 0 11 5 11 10 0 6 -2 10 -4 10 -3 0
-8 -4 -11 -10z"/>
<path d="M3407 1033 c-12 -11 -8 -23 8 -23 8 0 15 7 15 15 0 16 -12 20 -23 8z"/>
<path d="M3500 1020 c0 -5 5 -10 10 -10 6 0 10 5 10 10 0 6 -4 10 -10 10 -5 0
-10 -4 -10 -10z"/>
<path d="M3640 1020 c0 -5 5 -10 11 -10 5 0 7 5 4 10 -3 6 -8 10 -11 10 -2 0
-4 -4 -4 -10z"/>
<path d="M4885 1010 c-3 -5 -1 -10 4 -10 6 0 11 5 11 10 0 6 -2 10 -4 10 -3 0
-8 -4 -11 -10z"/>
<path d="M3356 991 c-4 -5 -2 -12 3 -15 5 -4 12 -2 15 3 4 5 2 12 -3 15 -5 4
-12 2 -15 -3z"/>
<path d="M3730 990 c0 -13 28 -25 38 -16 3 4 0 11 -8 16 -20 13 -30 12 -30 0z"/>
<path d="M4645 990 c-3 -5 -2 -10 4 -10 5 0 13 5 16 10 3 6 2 10 -4 10 -5 0
-13 -4 -16 -10z"/>
<path d="M3410 980 c0 -5 5 -10 10 -10 6 0 10 5 10 10 0 6 -4 10 -10 10 -5 0
-10 -4 -10 -10z"/>
<path d="M3320 970 c0 -5 5 -10 10 -10 6 0 10 5 10 10 0 6 -4 10 -10 10 -5 0
-10 -4 -10 -10z"/>
<path d="M4816 970 c-11 -3 -15 -9 -10 -13 10 -6 42 9 34 16 -3 3 -14 1 -24
-3z"/>
<path d="M4260 959 c0 -5 5 -7 10 -4 6 3 10 8 10 11 0 2 -4 4 -10 4 -5 0 -10
-5 -10 -11z"/>
<path d="M3440 946 c0 -9 5 -16 10 -16 6 0 10 4 10 9 0 6 -4 13 -10 16 -5 3
-10 -1 -10 -9z"/>
<path d="M3706 953 c-11 -11 -6 -23 9 -23 8 0 15 4 15 9 0 13 -16 22 -24 14z"/>
<path d="M3852 949 c5 -17 48 -25 48 -10 0 6 -4 11 -9 11 -5 0 -17 3 -27 7
-12 4 -15 2 -12 -8z"/>
<path d="M3745 930 c-3 -6 1 -7 9 -4 18 7 21 14 7 14 -6 0 -13 -4 -16 -10z"/>
<path d="M4450 920 c-26 -20 -26 -26 4 -32 22 -4 45 27 31 41 -7 7 -19 3 -35
-9z"/>
<path d="M4830 929 c0 -5 5 -7 10 -4 6 3 10 8 10 11 0 2 -4 4 -10 4 -5 0 -10
-5 -10 -11z"/>
<path d="M4180 920 c0 -5 9 -10 20 -10 11 0 20 5 20 10 0 6 -9 10 -20 10 -11
0 -20 -4 -20 -10z"/>
<path d="M3646 895 c4 -8 8 -15 10 -15 2 0 4 7 4 15 0 8 -4 15 -10 15 -5 0 -7
-7 -4 -15z"/>
<path d="M3716 903 c-11 -11 -6 -23 9 -23 8 0 15 4 15 9 0 13 -16 22 -24 14z"/>
<path d="M4730 900 c0 -5 5 -10 11 -10 5 0 7 5 4 10 -3 6 -8 10 -11 10 -2 0
-4 -4 -4 -10z"/>
<path d="M4290 885 c-8 -9 -8 -15 -2 -15 12 0 26 19 19 26 -2 2 -10 -2 -17
-11z"/>
<path d="M4330 890 c0 -5 7 -10 16 -10 8 0 12 5 9 10 -3 6 -10 10 -16 10 -5 0
-9 -4 -9 -10z"/>
<path d="M3836 881 c-4 -7 -5 -15 -2 -18 9 -9 19 4 14 18 -4 11 -6 11 -12 0z"/>
<path d="M3672 869 c2 -7 10 -15 17 -17 8 -3 12 1 9 9 -2 7 -10 15 -17 17 -8
3 -12 -1 -9 -9z"/>
<path d="M3784 865 c-4 -8 -12 -15 -20 -15 -8 0 -14 -4 -14 -9 0 -20 46 -8 57
15 9 19 8 24 -3 24 -8 0 -17 -7 -20 -15z"/>
<path d="M4650 870 c0 -5 5 -10 10 -10 6 0 10 5 10 10 0 6 -4 10 -10 10 -5 0
-10 -4 -10 -10z"/>
<path d="M4796 871 c-3 -5 1 -14 9 -21 13 -10 15 -9 15 9 0 21 -14 28 -24 12z"/>
<path d="M4728 859 c-18 -10 -25 -39 -9 -39 12 0 33 28 29 39 -2 6 -9 6 -20 0z"/>
<path d="M3717 853 c-12 -11 -8 -23 8 -23 8 0 15 7 15 15 0 16 -12 20 -23 8z"/>
<path d="M4350 851 c0 -5 5 -13 10 -16 6 -3 10 -2 10 4 0 5 -4 13 -10 16 -5 3
-10 2 -10 -4z"/>
<path d="M3852 841 c4 -13 18 -16 19 -4 0 4 -5 9 -11 12 -7 2 -11 -2 -8 -8z"/>
<path d="M4387 844 c-8 -8 1 -24 14 -24 5 0 9 7 9 15 0 15 -12 20 -23 9z"/>
<path d="M4481 833 c-9 -17 -7 -19 20 -15 27 4 52 22 30 22 -5 0 -16 3 -24 6
-9 3 -20 -2 -26 -13z"/>
<path d="M4040 831 c0 -5 5 -13 10 -16 6 -3 10 -2 10 4 0 5 -4 13 -10 16 -5 3
-10 2 -10 -4z"/>
<path d="M4567 813 c-4 -3 -7 -11 -7 -17 0 -6 5 -5 12 2 6 6 9 14 7 17 -3 3
-9 2 -12 -2z"/>
</g>
</svg>
